#!OML:ASF I:\golf\golf\golf 2\Subject 1\2002-09-07\Subject1.ASF
:FULLY-SPECIFIED
:DEGREES
201
root -5.81082 17.7869 2.93793 -3.39103 50.5971 -17.5071
lowerback 4.67631 -6.31138 -13.4599
upperback 3.46778 -8.7428 -0.940709
thorax 2.94185 -4.66419 6.47737
lowerneck -7.32741 17.3987 4.72555
upperneck 23.1697 27.9974 -14.3918
head 11.62 11.8589 -1.94991
rclavicle 2.22639e-014 2.54444e-014
rhumerus -2.77286 -8.85712 -90.4343
rradius 89.8271
rwrist -30.9714
rhand -63.9715 33.7465
rfingers 7.12502
rthumb -35.924 7.41138
lclavicle 2.22639e-014 2.54444e-014
lhumerus 78.6065 -59.683 44.4463
lradius 26.6623
lwrist -4.65634
lhand -11.0009 5.35377
lfingers 7.12502
lthumb -164.98 -145.211
rfemur -30.4932 13.9588 23.567
rtibia 29.1288
rfoot -7.40675 15.7534
rtoes 14.1499
lfemur -13.3487 22.9558 1.98431
ltibia 36.4652
lfoot -10.5307 13.8176
ltoes -28.4096
202
root -5.80623 17.7797 2.9786 -3.24945 50.0562 -17.2251
lowerback 4.66176 -6.3781 -13.5436
upperback 3.41396 -8.83005 -1.14503
thorax 2.89068 -4.69715 6.30626
lowerneck -7.17054 17.5458 4.83748
upperneck 22.7648 28.0804 -14.3938
head 11.4581 11.9426 -1.97129
rclavicle -1.59028e-015 -1.59028e-014
rhumerus -1.98275 -9.19214 -90.1111
rradius 90.7784
rwrist -29.5654
rhand -63.9269 35.8951
rfingers 7.12502
rthumb -35.8817 9.5496
lclavicle -1.59028e-015 -1.59028e-014
lhumerus 79.8574 -59.1076 44.0374
lradius 27.0748
lwrist -5.05861
lhand -11.3018 4.40817
lfingers 7.12502
lthumb -165.27 -146.135
rfemur -30.385 14.0739 23.6896
rtibia 29.2808
rfoot -7.27337 16.2842
rtoes 15.4602
lfemur -12.831 23.2461 2.18062
ltibia 36.422
lfoot -9.93314 13.8696
ltoes -31.4867
203
root -5.80188 17.7695 3.01961 -3.05135 49.4912 -16.9076
lowerback 4.58305 -6.48302 -13.7362
upperback 3.3764 -8.96193 -1.26348
thorax 2.93488 -4.76387 6.26892
lowerneck -7.13154 17.7465 4.78294
upperneck 22.3561 28.2762 -14.4326
head 11.3141 12.0527 -1.954
rclavicle 1.35174e-013 -5.40694e-014
rhumerus -1.05597 -9.31108 -89.6937
rradius 91.7069
rwrist -28.1353
rhand -64.0724 36.5716
rfingers 7.12502
rthumb -36.0196 10.2599
lclavicle 1.35174e-013 -5.40694e-014
lhumerus 81.4949 -58.3593 43.2058
lradius 27.4741
lwrist -5.08399
lhand -11.7296 3.74125
lfingers 7.12502
lthumb -165.682 -146.772
rfemur -30.301 14.188 23.8069
rtibia 29.4075
rfoot -7.24736 16.7713
rtoes 15.9014
lfemur -12.3506 23.44 2.32331
ltibia 36.3914
lfoot -9.2987 14.0257
ltoes -34.2294
204
root -5.80102 17.7675 3.05753 -2.94834 48.9826 -16.8014
lowerback 4.57479 -6.6366 -13.7898
upperback 3.28156 -9.17361 -1.31561
thorax 2.88273 -4.8611 6.23771
lowerneck -7.06389 17.9562 4.69644
upperneck 21.898 28.4969 -14.5373
head 11.1574 12.1717 -1.95397
rclavicle 9.70069e-014 3.18055e-015
rhumerus -0.0132782 -9.3305 -89.2373
rradius 92.5082
rwrist -26.7905
rhand -64.3519 37.7696
rfingers 7.12502
rthumb -36.2842 11.5234
lclavicle 9.70069e-014 3.18055e-015
lhumerus 83.2236 -57.5833 42.1993
lradius 27.8291
lwrist -5.16041
lhand -12.1256 3.48745
lfingers 7.12502
lthumb -166.064 -147
rfemur -30.2854 14.4501 23.995
rtibia 29.5125
rfoot -7.38514 16.9952
rtoes 15.2761
lfemur -11.9384 23.3228 2.57892
ltibia 36.3917
lfoot -9.39993 14.01
ltoes -33.3139
205
root -5.79965 17.7741 3.09599 -2.735 48.4761 -16.5773
lowerback 4.57833 -6.7619 -13.901
upperback 3.14472 -9.35413 -1.40178
thorax 2.77607 -4.93764 6.20839
lowerneck -6.91511 18.1053 4.71358
upperneck 21.4615 28.6312 -14.6721
head 11.0062 12.2614 -1.99818
rclavicle -1.82882e-014 -2.22639e-014
rhumerus 1.00254 -9.38238 -88.7524
rradius 93.2205
rwrist -25.1576
rhand -64.7331 38.8595
rfingers 7.12502
rthumb -36.6451 12.7041
lclavicle -1.82882e-014 -2.22639e-014
lhumerus 84.5271 -56.8997 41.6664
lradius 28.2315
lwrist -5.60309
lhand -12.3671 3.25612
lfingers 7.12502
lthumb -166.297 -147.215
rfemur -30.258 14.7058 24.0795
rtibia 29.5733
rfoot -7.41045 17.2785
rtoes 15.0318
lfemur -11.5569 23.218 2.72147
ltibia 36.4238
lfoot -9.8021 13.8792
ltoes -30.8543
206
root -5.79728 17.7802 3.13256 -2.45551 47.9876 -16.2293
lowerback 4.6694 -6.89067 -14.1126
upperback 2.95939 -9.56167 -1.47468
thorax 2.59414 -5.02294 6.26039
lowerneck -6.81497 18.2671 4.68108
upperneck 21.1335 28.8064 -14.7576
head 10.8946 12.3595 -2.00741
rclavicle 1.26427e-013 -3.18055e-015
rhumerus 1.81024 -9.34827 -88.1527
rradius 94.0722
rwrist -23.7442
rhand -65.076 40.6631
rfingers 7.12502
rthumb -36.9695 14.5908
lclavicle 1.26427e-013 -3.18055e-015
lhumerus 85.2277 -56.2612 41.793
lradius 28.6522
lwrist -6.27036
lhand -12.771 2.8922
lfingers 7.12502
lthumb -166.686 -147.553
rfemur -30.1913 14.8482 24.0803
rtibia 29.589
rfoot -7.26363 17.7028
rtoes 15.7651
lfemur -11.2695 23.2692 2.69888
ltibia 36.4557
lfoot -9.58632 14.0414
ltoes -30.4289
207
root -5.79536 17.7793 3.16976 -2.34165 47.4989 -16.0328
lowerback 4.80877 -7.01166 -14.2745
upperback 2.79009 -9.76606 -1.51021
thorax 2.40036 -5.10647 6.33154
lowerneck -6.6937 18.4546 4.59627
upperneck 20.779 28.9972 -14.7777
head 10.7513 12.472 -1.99215
rclavicle -3.93594e-014 -5.08889e-014
rhumerus 2.60689 -9.36929 -87.5354
rradius 94.8552
rwrist -22.4726
rhand -65.2247 43.5441
rfingers 7.12502
rthumb -37.1101 17.5082
lclavicle -3.93594e-014 -5.08889e-014
lhumerus 85.8696 -55.6212 42.0364
lradius 29.0075
lwrist -6.50754
lhand -13.1983 2.37528
lfingers 7.12502
lthumb -167.098 -148.044
rfemur -30.0757 15.1259 24.1711
rtibia 29.6203
rfoot -7.17688 17.9632
rtoes 16.4765
lfemur -10.8986 23.3472 2.8454
ltibia 36.4552
lfoot -9.39604 14.1663
ltoes -30.5123
208
root -5.79143 17.7773 3.20924 -2.27164 46.9655 -15.9804
lowerback 4.77159 -7.11307 -14.3263
upperback 2.62721 -9.9117 -1.5503
thorax 2.27914 -5.16325 6.31842
lowerneck -6.3333 18.5954 4.64378
upperneck 20.2969 29.0717 -14.8132
head 10.5269 12.5674 -2.0454
rclavicle 6.99722e-014 -3.18055e-015
rhumerus 3.44552 -9.54393 -86.9291
rradius 95.5301
rwrist -21.2927
rhand -65.0304 45.9056
rfingers 7.12502
rthumb -36.9264 19.8222
lclavicle 6.99722e-014 -3.18055e-015
lhumerus 86.6971 -55.0308 42.1563
lradius 29.2622
lwrist -6.56284
lhand -13.5283 1.80685
lfingers 7.12502
lthumb -167.416 -148.592
rfemur -30.0356 15.5008 24.3454
rtibia 29.7051
rfoot -7.06511 18.204
rtoes 17.1332
lfemur -10.5 23.3399 3.11648
ltibia 36.4161
lfoot -9.16019 14.2531
ltoes -31.3509
